# xmcd CD database file
#
# Track frame offsets:
#	150
#	23241
#	41196
#	63945
#	89384
#	104916
#	182848
#	200248
#	229020
#	258188
#	275899
#	289409
#	308533
#	331357
#
# Disc length: 4746 seconds
#
# Revision: 0
# Processed by: cddbd v1.5.1PL2 Copyright (c) Steve Scherf et al.
# Submitted via: Feurio! 1.68 - http://www.feurio.com
#
DISCID=d912880e
DTITLE=Stone The Crows - Daylight
DYEAR=1900
DGENRE=Blues
TTITLE0=Blind Man
TTITLE1=Fool On The Hill
TTITLE2=Don't Think Twice
TTITLE3=Ode To John Law
TTITLE4=Mad Dogs and Englishmen
TTITLE5=I Saw America
TTITLE6=Maggie Bell - Queen of the Night
TTITLE7=Friend
TTITLE8=Love
TTITLE9=Maggie Bell - No Mean City
TTITLE10=Hazell
TTITLE11=Maggie Bell - I Saw Him Standing There
TTITLE12=Stone The Crowds - Raining In Your Heart
TTITLE13=Penicillin Blues
EXTD=
EXTT0=
EXTT1=
EXTT2=
EXTT3=
EXTT4=
EXTT5=
EXTT6=
EXTT7=
EXTT8=
EXTT9=
EXTT10=
EXTT11=
EXTT12=
EXTT13=
PLAYORDER=
